<svg width="38" height="32" viewBox="0 0 38 32" fill="none" xmlns="http://www.w3.org/2000/svg">
<path d="M1.25485 14.661C1.34061 14.6182 1.42641 14.5776 1.51002 14.5392C2.96356 13.8682 4.43632 13.2402 5.90694 12.6121C5.98622 12.6122 6.11914 12.5202 6.19417 12.4903C6.30779 12.4412 6.42143 12.3942 6.53505 12.345C6.75371 12.251 6.97239 12.1592 7.18891 12.0652C7.62623 11.8793 8.06139 11.6935 8.49872 11.5076L11.1162 10.3903C12.8613 9.64692 14.6085 8.90135 16.3535 8.15793C18.0985 7.4145 19.8457 6.66894 21.5907 5.92551C23.3357 5.18209 25.0829 4.43653 26.8279 3.69311C28.5729 2.94969 30.3201 2.20412 32.0651 1.4607C32.4531 1.29406 32.8734 1.04603 33.2891 0.97373C33.6385 0.912057 33.9793 0.792513 34.3307 0.726557C34.9972 0.601024 35.7322 0.5506 36.3703 0.827939C36.5908 0.924682 36.7942 1.05998 36.9632 1.22952C37.7719 2.03216 37.6566 3.34788 37.4836 4.47493C36.2795 12.33 35.0754 20.1873 33.8691 28.0424C33.7048 29.1202 33.4804 30.3029 32.6289 30.9832C31.9082 31.5587 30.884 31.6216 29.9952 31.3761C29.1064 31.1284 28.3229 30.6109 27.5545 30.1019C24.3672 27.9844 21.1777 25.8669 17.9904 23.7494C17.2327 23.2468 16.3894 22.5899 16.3993 21.6791C16.4043 21.1304 16.7327 20.6422 17.0676 20.2076C19.8449 16.5938 23.8484 14.1133 26.829 10.6669C27.2496 10.181 27.5808 9.30274 27.0049 9.0212C26.6623 8.85356 26.2677 9.08019 25.9546 9.29622C22.0172 12.0233 18.082 14.7526 14.1447 17.4797C12.8601 18.3695 11.5133 19.2849 9.96614 19.5014C8.58181 19.6967 7.18971 19.309 5.85119 18.9128C4.72897 18.5812 3.60886 18.2411 2.4931 17.8902C1.89987 17.7051 1.28739 17.505 0.829462 17.0864C0.371538 16.6679 0.109007 15.9646 0.386153 15.4077C0.560175 15.0586 0.896857 14.8384 1.25062 14.6588L1.25485 14.661Z" fill="#FEFFFC"/>
</svg>
