<?xml version="1.0" encoding="UTF-8"?>
<svg id="Layer_2" data-name="Layer 2" xmlns="http://www.w3.org/2000/svg" viewBox="0 0 96.51 96.51">
  <defs>
    <style>
      .cls-1 {
        fill: #fff;
      }
    </style>
  </defs>
  <g id="Layer_1-2" data-name="Layer 1">
    <g>
      <path class="cls-1" d="m96.51,69.05V26.91c0-1.55-.62-3.04-1.72-4.13L73.73,1.72C72.64.62,71.15,0,69.6,0H27.46c-2.32,0-4.54.92-6.18,2.55L2.02,21.83c-4.31,4.31-1.26,11.68,4.84,11.68,0,0,25.87,0,44.04,0,6.69,0,12.11,5.42,12.11,12.11,0,18.17,0,44.04,0,44.04,0,6.1,7.37,9.15,11.68,4.84l19.27-19.27c1.64-1.64,2.56-3.86,2.56-6.18Z"/>
      <path class="cls-1" d="m42.46,71.96v-14.09c0-2.11-1.71-3.82-3.82-3.82h-14.09s17.91,17.91,17.91,17.91Z"/>
    </g>
  </g>
</svg>