<?xml version="1.0" encoding="utf-8"?>
<!-- Generator: Adobe Illustrator 27.7.0, SVG Export Plug-In . SVG Version: 6.00 Build 0)  -->
<svg version="1.1" id="Layer_2_00000003105870754383632810000003691885744436951439_"
	 xmlns="http://www.w3.org/2000/svg" xmlns:xlink="http://www.w3.org/1999/xlink" x="0px" y="0px" viewBox="0 0 459.3 324.2"
	 style="enable-background:new 0 0 459.3 324.2;" xml:space="preserve">
<style type="text/css">
	.st0{fill:#FFFFFF;}
</style>
<g id="Layer_1-2_00000115507104846945321140000005657481459779597959_">
	<g>
		<path class="st0" d="M447.5,143.1L315.3,10.9C310.4,6,303.8,3.3,297,3.3L164.7,3.2c-6.9-0.1-13.5,2.8-18.3,7.6L14.1,143.1
			c-7.3,7.3-11.4,17.2-11.4,27.4l0.1,121c0,27,32.7,40.6,51.8,21.4c0,0,81.2-81.2,138.2-138.2c21-21,55.1-21,76.1,0
			c57.1,57.1,138.2,138.2,138.2,138.2c19.2,19.2,51.8,5.6,51.8-21.4V170.5C458.9,160.1,454.9,150.3,447.5,143.1L447.5,143.1z"/>
		<path class="st0" d="M287,321.9l-44.2-44.2c-6.6-6.6-17.4-6.6-24,0l-44.2,44.2H287z"/>
	</g>
</g>
</svg>
