<?xml version="1.0" encoding="utf-8"?>
<!-- Generator: Adobe Illustrator 27.7.0, SVG Export Plug-In . SVG Version: 6.00 Build 0)  -->
<svg version="1.1" id="Layer_2_00000003105870754383632810000003691885744436951439_"
	 xmlns="http://www.w3.org/2000/svg" xmlns:xlink="http://www.w3.org/1999/xlink" x="0px" y="0px" viewBox="0 0 2528.9 429.5"
	 style="enable-background:new 0 0 2528.9 429.5;" xml:space="preserve">
<style type="text/css">
	.st0{fill:#FFFFFF;}
</style>
<g id="Layer_1-2">
	<g>
		<path class="st0" d="M818.6,65.8c-40.3,0-74.8,23.4-89.7,60.8L643,342.2h54.3l78.4-196.9c7.3-18.2,23.2-29.1,42.8-29.1
			s35.5,10.8,42.8,29.1l78.4,196.9h54.4l-85.9-215.5C893.3,89.1,858.9,65.8,818.6,65.8z"/>
		<path class="st0" d="M1174.9,241.3H1281v39.6c0,5.9-4.8,10.7-10.7,10.7h-136.7c-29,0-52.9-23.9-52.9-52.9v-69.6
			c0-29,23.9-52.9,52.9-52.9h180.8V65.8h-180.8c-56.9,0-103.4,46.5-103.4,103.4v69.5c0,56.9,46.5,103.4,103.4,103.4h143.9
			c29.8,0,54-24.2,54-54v-97.3h-156.6L1174.9,241.3L1174.9,241.3z"/>
		<rect x="1403.7" y="65.8" class="st0" width="50.5" height="276.4"/>
		<path class="st0" d="M1705.2,65.8h-178.6v276.4h178.6c56.9,0,103.4-46.5,103.4-103.4v-69.5C1808.6,112.3,1762,65.8,1705.2,65.8
			L1705.2,65.8z M1758.1,238.7c0,29.1-23.8,52.9-52.9,52.9h-128.1V116.2h128.1c29.1,0,52.9,23.8,52.9,52.9V238.7L1758.1,238.7z"/>
		<path class="st0" d="M2006.9,65.8c-40.3,0-74.8,23.4-89.7,60.8l-85.9,215.6h54.4l78.4-196.9c7.3-18.2,23.2-29.1,42.8-29.1
			s35.5,10.8,42.8,29.1l78.4,196.9h54.3l-85.8-215.6C2081.7,89.1,2047.2,65.8,2006.9,65.8L2006.9,65.8z"/>
		<path class="st0" d="M2422.3,65.8H2313c-56.9,0-103.4,46.5-103.4,103.4v69.5c0,56.9,46.5,103.4,103.4,103.4h109.3
			c56.9,0,103.5-46.5,103.5-103.4v-69.5C2525.8,112.3,2479.3,65.8,2422.3,65.8z M2475.3,238.7c0,29.1-23.8,52.9-52.9,52.9h-109.3
			c-29.1,0-52.9-23.8-52.9-52.9v-69.5c0-29.1,23.8-52.9,52.9-52.9h109.2c29.1,0,52.9,23.8,52.9,52.9L2475.3,238.7L2475.3,238.7z"/>
	</g>
</g>
<g id="Layer_1-2_00000115507104846945321140000005657481459779597959_">
	<g>
		<path class="st0" d="M428.5,306.9v-187c0-6.9-2.8-13.5-7.6-18.3L327.4,8c-4.8-4.9-11.5-7.6-18.3-7.6H122
			c-10.3,0-20.2,4.1-27.4,11.3L9.1,97.3c-19.1,19.1-5.6,51.8,21.5,51.8c0,0,114.8,0,195.5,0c29.7,0,53.8,24.1,53.8,53.8
			c0,80.7,0,195.5,0,195.5c0,27.1,32.7,40.6,51.8,21.5l85.5-85.5C424.5,327,428.6,317.2,428.5,306.9L428.5,306.9z"/>
		<path class="st0" d="M188.6,319.8v-62.5c0-9.4-7.6-17-17-17h-62.5L188.6,319.8z"/>
	</g>
</g>
</svg>
